<?xml version="1.0" encoding="UTF-8"?>
<svg id="Layer_1" data-name="Layer 1" xmlns="http://www.w3.org/2000/svg" xmlns:xlink="http://www.w3.org/1999/xlink" viewBox="0 0 1500.76 509.08">
  <defs>
    <style>
      .cls-1 {
        fill: none;
      }

      .cls-2 {
        mask: url(#mask);
      }

      .cls-3 {
        fill: #6d6e71;
      }

      .cls-4 {
        fill: url(#linear-gradient-4);
      }

      .cls-5 {
        fill: url(#linear-gradient-3);
      }

      .cls-6 {
        fill: url(#linear-gradient-2);
      }

      .cls-7 {
        fill: url(#linear-gradient);
      }

      .cls-8 {
        mask: url(#mask-1);
      }

      .cls-9 {
        clip-path: url(#clippath-1);
      }

      .cls-10 {
        fill: #fff;
      }

      .cls-11 {
        fill: #ef4f24;
      }

      .cls-12 {
        clip-path: url(#clippath);
      }
    </style>
    <clipPath id="clippath">
      <path class="cls-1" d="M270.7,40.81C96.79,101.42-16.05,242.98,18.65,357c34.7,114.02,203.81,157.31,377.72,96.71,173.91-60.61,286.75-202.17,252.04-316.19-24.06-79.05-112.74-124.11-222.81-124.11-48.7,0-101.57,8.81-154.9,27.4"/>
    </clipPath>
    <linearGradient id="linear-gradient" x1="149.27" y1="677.26" x2="152.08" y2="677.26" gradientTransform="translate(-34199.42 154702.08) scale(228.03 -228.03)" gradientUnits="userSpaceOnUse">
      <stop offset="0" stop-color="#fff"/>
      <stop offset=".24" stop-color="#fff"/>
      <stop offset=".96" stop-color="#000"/>
      <stop offset="1" stop-color="#000"/>
    </linearGradient>
    <mask id="mask" x="-216.02" y="-265.72" width="1099.12" height="1059.16" maskUnits="userSpaceOnUse">
      <rect class="cls-7" x="-91.06" y="-116.23" width="849.2" height="760.19" transform="translate(-82.68 176.48) rotate(-26.49)"/>
    </mask>
    <linearGradient id="linear-gradient-2" x1="149.27" y1="677.26" x2="152.08" y2="677.26" gradientTransform="translate(-34199.43 154702.08) scale(228.03 -228.03)" gradientUnits="userSpaceOnUse">
      <stop offset="0" stop-color="#f79420"/>
      <stop offset=".24" stop-color="#f79420"/>
      <stop offset=".96" stop-color="#f58720"/>
      <stop offset="1" stop-color="#f58720"/>
    </linearGradient>
    <clipPath id="clippath-1">
      <path class="cls-1" d="M270.7,40.81C96.79,101.42-16.05,242.98,18.65,357c34.7,114.02,203.81,157.31,377.72,96.71,173.91-60.61,286.75-202.17,252.04-316.19-24.06-79.05-112.74-124.11-222.81-124.11-48.7,0-101.57,8.81-154.9,27.4"/>
    </clipPath>
    <linearGradient id="linear-gradient-3" x1="149.27" y1="677.26" x2="152.08" y2="677.26" gradientTransform="translate(-34199.42 154702.08) scale(228.03 -228.03)" gradientUnits="userSpaceOnUse">
      <stop offset="0" stop-color="#fff"/>
      <stop offset=".06" stop-color="#fff"/>
      <stop offset=".19" stop-color="#c4c4c4"/>
      <stop offset=".36" stop-color="#7f7f7f"/>
      <stop offset=".51" stop-color="#484848"/>
      <stop offset=".64" stop-color="#212121"/>
      <stop offset=".74" stop-color="#080808"/>
      <stop offset=".8" stop-color="#000"/>
      <stop offset="1" stop-color="#000"/>
    </linearGradient>
    <mask id="mask-1" x="-216.02" y="-265.72" width="1099.12" height="1059.16" maskUnits="userSpaceOnUse">
      <rect class="cls-5" x="-91.06" y="-116.23" width="849.2" height="760.19" transform="translate(-82.68 176.48) rotate(-26.49)"/>
    </mask>
    <linearGradient id="linear-gradient-4" x1="149.27" y1="677.26" x2="152.08" y2="677.26" gradientTransform="translate(-34199.43 154702.08) scale(228.03 -228.03)" gradientUnits="userSpaceOnUse">
      <stop offset="0" stop-color="#fddf00"/>
      <stop offset=".06" stop-color="#fddf00"/>
      <stop offset=".28" stop-color="#fdd606"/>
      <stop offset=".8" stop-color="#ffc612"/>
      <stop offset="1" stop-color="#ffc612"/>
    </linearGradient>
  </defs>
  <g>
    <path class="cls-11" d="M648.42,137.52C613.71,23.5,444.6-19.79,270.7,40.81,96.79,101.42-16.05,242.98,18.65,357c34.71,114.02,203.82,157.32,377.72,96.71,173.91-60.61,286.75-202.17,252.05-316.19"/>
    <g class="cls-12">
      <g class="cls-2">
        <rect class="cls-6" x="-91.06" y="-116.23" width="849.2" height="760.19" transform="translate(-82.68 176.48) rotate(-26.49)"/>
      </g>
    </g>
    <g class="cls-9">
      <g class="cls-8">
        <rect class="cls-4" x="-91.06" y="-116.23" width="849.2" height="760.19" transform="translate(-82.68 176.48) rotate(-26.49)"/>
      </g>
    </g>
    <path class="cls-10" d="M372.48,214.3l-46.9,153.44h18.97c21.81,0,41-14.38,47.14-35.3l28.84-98.36c3.06-9.81-4.28-19.78-14.56-19.78h-33.5Z"/>
    <path class="cls-10" d="M556.52,161.56c-30.22,0-58.49,10.5-80.85,28.77-5.46,4.46-12.67,6.35-19.53,4.7-3.59-.86-6.83-2.59-9.07-5.17-5.41-7.22-.22-23.64-.22-23.64.68-2.45,1.01-4.84,1.08-7.17l.04-.25h-.04c.33-13.68-9.29-24.53-24.09-25.57-17.4-1.23-35.31,11.54-40,28.53-4.7,16.99,5.6,31.76,23,32.99,1.92.14,3.85.06,5.77-.13v.03s.1-.02.28-.05c.68-.07,1.35-.17,2.02-.29,6.03-.69,22.35-1.18,28.41,12.41.46,1.1.85,2.23,1.18,3.37,2.06,7.28,1.14,15.08-2.29,21.81-5.16,10.12-9.12,21.11-11.67,32.83-13.39,61.65,20.98,103.19,81.1,103.19s112.16-41.54,125.57-103.19c13.39-61.64-20.98-103.19-80.7-103.19M572.6,264.33c-11.3,53.26-32.49,87.52-57.24,87.83-24.2-.09-30.93-34.17-19.8-87.01,11.3-53.26,32.11-87.59,56.86-87.9,24.74-.3,31.46,33.81,20.18,87.08"/>
    <path class="cls-10" d="M286.14,102.87h-59.31l-55.9,188.08-23.05,76.98h17.09c21.64,0,40.74-14.17,47.01-34.88l25.48-84.13h5.99c70.56,0,113.66-25.64,127.46-72.85,13.89-47.56-14.21-73.19-84.77-73.19M315.15,176.06c-10.65,36.43-31.84,59.36-69.01,59.36h-4.73l34.8-119.06h4.73c37.17,0,44.97,22.93,34.21,59.7"/>
  </g>
  <g>
    <path class="cls-3" d="M743.7,163.31h48.83c17.72,0,31.38,3.79,40.97,11.37,9.58,7.57,14.38,18.12,14.38,31.66,0,9.02-1.67,16.88-4.96,23.57-3.31,6.68-7.98,12.21-14.03,16.56-6.04,4.35-13.25,7.57-21.63,9.66-8.38,2.09-17.64,3.15-27.8,3.15h-29.23l-13.3,75.16h-23.44l30.21-171.13ZM753.61,239.45h27.06c13.22,0,23.77-2.41,31.67-7.25,7.89-4.84,11.85-12.58,11.85-23.2,0-4.84-.86-8.9-2.55-12.21-1.69-3.3-4.06-5.97-7.13-7.97-3.05-2.03-6.73-3.42-10.99-4.23-4.27-.81-8.99-1.21-14.15-1.21h-25.61l-10.15,56.08Z"/>
    <path class="cls-3" d="M863.34,334.44h-22.24l20.06-114.57h22.47l-20.3,114.57ZM893.06,178.06c0,4.03-1.37,7.49-4.08,10.39-2.71,2.9-6.07,4.35-10.06,4.35s-7.15-1.21-9.95-3.63c-2.78-2.41-4.18-5.8-4.18-10.15s1.47-7.94,4.43-10.76c2.95-2.81,6.34-4.23,10.18-4.23s7.07,1.3,9.7,3.86c2.65,2.58,3.96,5.97,3.96,10.17"/>
    <path class="cls-3" d="M942.2,337.58c-7.91,0-15.16-1.2-21.77-3.63-6.61-2.41-12.33-5.83-17.15-10.27-4.84-4.43-8.63-9.71-11.37-15.83-2.75-6.12-4.11-12.88-4.11-20.3,0-9.51,1.65-18.53,4.95-27.08,3.31-8.53,7.98-16.07,14.01-22.59,6.05-6.53,13.3-11.68,21.76-15.48,8.45-3.78,17.84-5.68,28.16-5.68,7.89,0,15.14,1.21,21.75,3.63,6.61,2.43,12.33,5.8,17.17,10.17,4.84,4.35,8.58,9.54,11.24,15.58,2.65,6.05,3.98,12.78,3.98,20.18,0,9.68-1.65,18.82-4.96,27.43-3.3,8.63-7.97,16.2-14.01,22.73-6.05,6.52-13.27,11.68-21.63,15.46-8.38,3.79-17.74,5.68-28.04,5.68M988.13,268.45c0-4.67-.77-9.02-2.31-13.05-1.54-4.03-3.71-7.54-6.53-10.5-2.81-2.99-6.27-5.33-10.39-7.01-4.11-1.7-8.67-2.55-13.66-2.55-6.61,0-12.66,1.38-18.13,4.11-5.48,2.75-10.2,6.41-14.15,10.99-3.95,4.6-7.01,9.91-9.19,15.95-2.17,6.05-3.26,12.46-3.26,19.22,0,9.68,2.9,17.6,8.7,23.8,5.8,6.21,13.86,9.31,24.16,9.31,6.61,0,12.66-1.33,18.14-3.98,5.46-2.66,10.19-6.29,14.13-10.89,3.95-4.59,7.02-9.95,9.19-16.07,2.17-6.12,3.27-12.56,3.27-19.34"/>
    <path class="cls-3" d="M1056.28,219.87c-.32,2.26-.69,5.28-1.1,9.05-.41,3.79-.84,6.98-1.33,9.56h.49c4.2-6.61,9.54-11.89,16.08-15.83,6.53-3.95,13.89-5.93,22.11-5.93,12.58,0,22.12,3.35,28.64,10.03,6.53,6.7,9.8,15.11,9.8,25.26,0,4.03-.34,7.91-.98,11.62l-12.56,70.81h-22.47l11.11-63.33c.96-4.35,1.45-8.62,1.45-12.81,0-6.61-1.62-12-4.84-16.19-3.22-4.2-9.02-6.29-17.4-6.29-9.02,0-16.84,3.42-23.44,10.27-6.61,6.86-10.96,16-13.07,27.43l-10.62,60.91h-22.49l15.71-89.68c.64-3.05,1.33-7,2.06-11.84.73-4.84,1.25-9.19,1.57-13.05h21.28Z"/>
    <path class="cls-3" d="M1164.11,283.93c-.17.81-.24,1.48-.24,2.06v1.81c0,4.52.84,8.67,2.53,12.44,1.7,3.79,4.03,7.1,7.01,9.91,2.98,2.83,6.52,5.01,10.64,6.53,4.1,1.53,8.5,2.29,13.17,2.29,8.21,0,15.26-1.64,21.14-4.94,5.88-3.3,10.84-7.45,14.87-12.46l13.3,12.58c-6.78,7.74-14.52,13.57-23.22,17.52-8.7,3.95-18.13,5.92-28.27,5.92-7.57,0-14.62-1.13-21.15-3.37-6.52-2.26-12.17-5.57-16.93-9.91-4.75-4.35-8.46-9.68-11.11-15.95-2.66-6.29-4-13.46-4-21.51,0-9.51,1.69-18.53,5.08-27.08,3.39-8.53,8.06-15.98,14.03-22.36,5.95-6.35,13.05-11.4,21.26-15.11,8.23-3.71,17.08-5.56,26.59-5.56,14.67,0,26.27,3.99,34.82,11.97,8.53,7.97,12.8,19.14,12.8,33.49,0,2.24-.2,5.51-.59,9.78-.4,4.27-1.01,8.26-1.82,11.97h-89.92ZM1234.92,267.49c.17-1.13.29-2.34.37-3.63.08-1.28.12-2.5.12-3.63,0-7.42-2.41-13.57-7.25-18.49-4.84-4.91-11.84-7.37-21.03-7.37-5.48,0-10.49.96-14.99,2.9-4.52,1.94-8.5,4.44-11.97,7.49-3.46,3.07-6.36,6.61-8.7,10.64-2.33,4.03-3.98,8.06-4.95,12.09h68.4Z"/>
    <path class="cls-3" d="M1291.57,283.93c-.17.81-.24,1.48-.24,2.06v1.81c0,4.52.84,8.67,2.53,12.44,1.7,3.79,4.03,7.1,7.01,9.91,2.98,2.83,6.52,5.01,10.64,6.53,4.1,1.53,8.5,2.29,13.17,2.29,8.21,0,15.26-1.64,21.14-4.94,5.88-3.3,10.84-7.45,14.87-12.46l13.3,12.58c-6.78,7.74-14.52,13.57-23.22,17.52-8.7,3.95-18.13,5.92-28.27,5.92-7.57,0-14.62-1.13-21.15-3.37-6.52-2.26-12.17-5.57-16.93-9.91-4.75-4.35-8.46-9.68-11.11-15.95-2.66-6.29-4-13.46-4-21.51,0-9.51,1.69-18.53,5.08-27.08,3.39-8.53,8.06-15.98,14.03-22.36,5.95-6.35,13.05-11.4,21.26-15.11,8.23-3.71,17.08-5.56,26.59-5.56,14.67,0,26.27,3.99,34.82,11.97,8.53,7.97,12.8,19.14,12.8,33.49,0,2.24-.2,5.51-.59,9.78-.4,4.27-1.01,8.26-1.82,11.97h-89.92ZM1362.38,267.49c.17-1.13.29-2.34.37-3.63.08-1.28.12-2.5.12-3.63,0-7.42-2.41-13.57-7.25-18.49-4.84-4.91-11.84-7.37-21.03-7.37-5.48,0-10.49.96-14.99,2.9-4.52,1.94-8.5,4.44-11.97,7.49-3.46,3.07-6.36,6.61-8.7,10.64-2.33,4.03-3.98,8.06-4.95,12.09h68.4Z"/>
    <path class="cls-3" d="M1406.64,232.92c.72-4.84,1.25-9.19,1.57-13.05h21.28c-.17,1.13-.34,2.53-.49,4.23-.17,1.69-.37,3.46-.61,5.31-.24,1.85-.49,3.63-.73,5.31-.24,1.7-.44,3.19-.61,4.49h.49c4.03-6.78,9.06-12.21,15.11-16.32,6.04-4.11,12.93-6.17,20.67-6.17,3.54,0,6.53.34,8.94.98l-3.86,21.02c-3.24-.81-6.53-1.21-9.91-1.21-5.48,0-10.32,1.01-14.5,3.02-4.2,2.02-7.83,4.72-10.88,8.11-3.07,3.37-5.53,7.28-7.39,11.72-1.85,4.43-3.19,9.07-3.98,13.89l-10.64,60.19h-22.24l15.71-89.68c.64-3.05,1.33-7,2.06-11.84"/>
    <path class="cls-3" d="M1171.35,125.1h19.97c7.24,0,12.83,1.55,16.75,4.64,3.92,3.1,5.88,7.41,5.88,12.95,0,3.69-.68,6.9-2.03,9.64-1.35,2.73-3.26,4.99-5.73,6.77-2.47,1.78-5.42,3.1-8.84,3.95-3.43.86-7.21,1.29-11.37,1.29h-11.95l-5.44,30.73h-9.58l12.35-69.97ZM1175.4,156.23h11.06c5.41,0,9.72-.99,12.95-2.96,3.23-1.98,4.85-5.14,4.85-9.49,0-1.98-.35-3.64-1.04-4.99-.69-1.35-1.66-2.44-2.92-3.26-1.25-.83-2.75-1.4-4.5-1.73-1.74-.33-3.67-.5-5.78-.5h-10.47l-4.15,22.93Z"/>
    <path class="cls-3" d="M1244.97,146.94c5.13,0,9.02,1.37,11.66,4.1,2.63,2.74,3.95,6.18,3.95,10.33,0,1.65-.14,3.23-.4,4.75l-5.13,28.95h-9.19l4.54-25.89c.39-1.78.59-3.52.59-5.24,0-2.7-.66-4.91-1.98-6.62-1.32-1.72-3.69-2.57-7.12-2.57-3.76,0-6.97,1.4-9.64,4.2-2.67,2.81-4.43,6.58-5.29,11.32l-4.34,24.8h-9.19l13.15-74.71h9.19l-6.12,34.98h.19c1.52-2.37,3.58-4.36,6.18-5.97,2.61-1.61,5.59-2.43,8.95-2.43"/>
    <path class="cls-3" d="M1300.71,165.82c.13-.92.23-1.65.3-2.18.07-.52.1-1.02.1-1.48,0-2.77-.86-4.76-2.57-5.98-1.72-1.22-4.15-1.83-7.31-1.83-2.5,0-5,.49-7.51,1.48-2.51.99-4.68,2.21-6.53,3.66l-3.75-6.13c2.5-1.98,5.43-3.54,8.79-4.7,3.36-1.15,6.79-1.73,10.28-1.73,2.24,0,4.4.25,6.47.74,2.08.5,3.92,1.28,5.54,2.37,1.61,1.09,2.92,2.52,3.91,4.3.99,1.78,1.48,3.92,1.48,6.42,0,.59-.03,1.37-.1,2.32-.06.96-.16,1.76-.3,2.43l-3.46,18.97c-.32,1.85-.59,3.74-.79,5.68-.2,1.94-.3,3.58-.3,4.9h-8.4c0-.99.05-2.04.15-3.17.1-1.12.25-2.24.44-3.36h-.19c-2.24,2.63-4.68,4.54-7.32,5.73-2.64,1.19-5.73,1.78-9.29,1.78-1.58,0-3.23-.19-4.94-.59-1.71-.39-3.27-1.07-4.7-2.03-1.41-.95-2.58-2.22-3.51-3.8-.92-1.59-1.38-3.56-1.38-5.93,0-3.82,1.05-6.9,3.16-9.24,2.11-2.34,4.83-4.15,8.15-5.44,3.33-1.28,7.07-2.14,11.22-2.56,4.15-.43,8.27-.64,12.35-.64M1298.24,172.53c-2.57,0-5.24.12-8.01.35-2.77.23-5.29.69-7.56,1.38-2.28.7-4.14,1.7-5.59,3.02-1.45,1.32-2.17,3.03-2.17,5.14,0,1.32.24,2.39.74,3.21.5.83,1.15,1.5,1.98,2.03.82.52,1.74.89,2.76,1.08,1.02.2,2.06.3,3.12.3,2.04,0,3.95-.35,5.73-1.04,1.78-.69,3.33-1.63,4.65-2.82,1.32-1.19,2.42-2.56,3.31-4.15.89-1.58,1.5-3.26,1.83-5.04l.69-3.46h-1.48Z"/>
    <path class="cls-3" d="M1321.12,153.56c.3-1.98.51-3.76.64-5.33h8.7c-.07.46-.14,1.03-.2,1.73-.07.69-.15,1.41-.25,2.17-.1.76-.2,1.48-.3,2.17-.1.7-.18,1.3-.25,1.83h.2c1.65-2.77,3.7-4.99,6.18-6.67,2.47-1.68,5.29-2.52,8.45-2.52,1.45,0,2.67.14,3.65.4l-1.58,8.6c-1.32-.33-2.67-.5-4.05-.5-2.24,0-4.22.41-5.93,1.23-1.72.83-3.2,1.93-4.45,3.32-1.25,1.38-2.26,2.98-3.02,4.79-.76,1.81-1.3,3.71-1.63,5.68l-4.35,24.61h-9.1l6.42-36.67c.26-1.25.55-2.86.84-4.84"/>
    <path class="cls-3" d="M1407.25,146.94c5.27,0,9.24,1.37,11.91,4.1,2.67,2.74,4.01,6.18,4.01,10.33,0,.79-.05,1.57-.15,2.32-.1.76-.21,1.57-.35,2.43l-5.13,28.95h-9.09l4.54-25.89c.13-.92.25-1.81.34-2.67.1-.85.15-1.72.15-2.57,0-2.7-.66-4.92-1.98-6.67-1.32-1.74-3.66-2.61-7.02-2.61-2.17,0-4.07.44-5.68,1.33-1.61.89-2.99,2.06-4.1,3.51-1.12,1.45-2.03,3.06-2.72,4.84-.7,1.78-1.21,3.59-1.53,5.43l-4.45,25.3h-9.19l4.94-27.77c.13-.79.25-1.55.34-2.28.1-.72.15-1.42.15-2.08,0-2.5-.63-4.52-1.88-6.03-1.25-1.51-3.36-2.27-6.32-2.27-1.72,0-3.37.38-4.94,1.13-1.58.76-3.01,1.81-4.3,3.16-1.28,1.35-2.39,2.99-3.31,4.9-.92,1.91-1.58,4.02-1.98,6.32l-4.34,24.91h-9.2l6.42-36.67c.26-1.25.54-2.86.84-4.84.3-1.98.51-3.76.64-5.33h8.7c-.13.92-.3,2.17-.5,3.76-.19,1.58-.36,2.86-.5,3.85h.2c1.65-2.5,3.74-4.61,6.28-6.33,2.53-1.71,5.55-2.57,9.04-2.57,3.23,0,6.12.78,8.65,2.32,2.53,1.55,4.16,3.97,4.89,7.26,1.91-3.03,4.27-5.38,7.07-7.06,2.8-1.68,5.98-2.52,9.54-2.52"/>
    <path class="cls-3" d="M1463.18,165.82c.13-.92.23-1.65.3-2.18.07-.52.1-1.02.1-1.48,0-2.77-.86-4.76-2.57-5.98-1.72-1.22-4.15-1.83-7.31-1.83-2.5,0-5.01.49-7.51,1.48-2.51.99-4.68,2.21-6.53,3.66l-3.75-6.13c2.5-1.98,5.43-3.54,8.79-4.7,3.36-1.15,6.79-1.73,10.28-1.73,2.24,0,4.4.25,6.47.74,2.08.5,3.92,1.28,5.54,2.37,1.61,1.09,2.92,2.52,3.91,4.3.99,1.78,1.48,3.92,1.48,6.42,0,.59-.03,1.37-.1,2.32-.06.96-.16,1.76-.3,2.43l-3.46,18.97c-.32,1.85-.59,3.74-.79,5.68-.2,1.94-.3,3.58-.3,4.9h-8.4c0-.99.05-2.04.15-3.17.1-1.12.25-2.24.44-3.36h-.19c-2.24,2.63-4.68,4.54-7.32,5.73-2.64,1.19-5.73,1.78-9.29,1.78-1.58,0-3.23-.19-4.94-.59-1.71-.39-3.27-1.07-4.69-2.03-1.41-.95-2.59-2.22-3.51-3.8-.92-1.59-1.38-3.56-1.38-5.93,0-3.82,1.05-6.9,3.16-9.24,2.11-2.34,4.83-4.15,8.16-5.44,3.33-1.28,7.06-2.14,11.21-2.56,4.15-.43,8.27-.64,12.35-.64M1460.72,172.53c-2.57,0-5.24.12-8,.35-2.77.23-5.29.69-7.56,1.38-2.28.7-4.14,1.7-5.59,3.02-1.45,1.32-2.17,3.03-2.17,5.14,0,1.32.24,2.39.74,3.21.5.83,1.15,1.5,1.98,2.03.82.52,1.74.89,2.76,1.08,1.02.2,2.06.3,3.12.3,2.04,0,3.95-.35,5.73-1.04,1.78-.69,3.33-1.63,4.65-2.82,1.32-1.19,2.42-2.56,3.31-4.15.89-1.58,1.5-3.26,1.83-5.04l.69-3.46h-1.48Z"/>
  </g>
</svg>